PathFileType  4	(X/Y/Z) /Users/kristensteudel/Documents/NMBL_Research/BertecForceProcessing/anc_files/
DataRate	CameraRate	NumFrames	NumMarkers	Units	OrigDataRate	OrigDataStartFrame	OrigNumFrames
  200.0		  200.0		    7		     46		 mm	  200.0	      629	    718
Frame#	Time	r_knee			r_shank_antsup			r_ankle			r_calc			r_5meta			r_toe			L_knee			L_shank_antsup			L_ankle			L_calc			L_5meta			L_toe			r_sh2			r_sh3			r_sh4			L_sh2			L_sh3			r_thigh1			r_thigh2			r_thigh3			r_thigh4			r_thigh5			L_thigh1			L_thigh2			L_thigh3			L_thigh4			r.ASIS			r.PSIS			L.ASIS			L.PSIS			C7			R_Shoulder			L_Shoulder			Sternum			R_humerus			R_elbow_med			R_elbow_lat			R_forearm			R_wrist_radius			R_wrist_ulna			L_humerus			L_elbow_med			L_elbow_lat			L_forearm			L_wrist_radius			L_wrist_ulna			
		X1	Y1	Z1	X2	Y2	Z2	X3	Y3	Z3	X4	Y4	Z4	X5	Y5	Z5	X6	Y6	Z6	X7	Y7	Z7	X8	Y8	Z8	X9	Y9	Z9	X10	Y10	Z10	X11	Y11	Z11	X12	Y12	Z12	X13	Y13	Z13	X14	Y14	Z14	X15	Y15	Z15	X16	Y16	Z16	X17	Y17	Z17	X18	Y18	Z18	X19	Y19	Z19	X20	Y20	Z20	X21	Y21	Z21	X22	Y22	Z22	X23	Y23	Z23	X24	Y24	Z24	X25	Y25	Z25	X26	Y26	Z26	X27	Y27	Z27	X28	Y28	Z28	X29	Y29	Z29	X30	Y30	Z30	X31	Y31	Z31	X32	Y32	Z32	X33	Y33	Z33	X34	Y34	Z34	X35	Y35	Z35	X36	Y36	Z36	X37	Y37	Z37	X38	Y38	Z38	X39	Y39	Z39	X40	Y40	Z40	X41	Y41	Z41	X42	Y42	Z42	X43	Y43	Z43	X44	Y44	Z44	X45	Y45	Z45	X46	Y46	Z46	

629	3.14000	945.060	482.146	-132.098	840.008	449.857	-139.733	543.647	587.391	-158.711	537.747	673.961	-213.844	429.233	504.773	-136.066	438.466	461.210	-201.262	867.525	471.772	-426.896	837.931	346.677	-412.698	635.728	112.127	-328.969	574.185	92.361	-273.981	760.045	40.291	-369.192	807.165	49.727	-307.814	725.841	486.206	-147.529	855.456	513.145	-102.350	751.478	559.459	-121.160	761.458	392.680	-431.771	706.485	288.405	-398.972	967.136	710.894	-121.529	998.792	600.931	-137.201	974.812	558.724	-107.013	872.462	673.638	-72.458	907.206	564.127	-100.720	891.083	706.393	-459.927	915.772	573.129	-423.278	774.532	683.754	-472.067	805.690	552.550	-432.230	876.207	927.492	-159.679	669.594	1013.985	-193.470	825.057	961.222	-423.826	643.162	1034.198	-308.568	809.887	1490.437	-315.389	861.784	1467.200	-113.662	871.906	1422.412	-507.185	956.572	1366.614	-305.822	742.946	1282.021	-22.455	598.943	1209.489	-57.686	615.992	1248.537	23.432	734.353	1103.159	25.427	798.869	1006.495	14.071	757.333	990.386	43.485	773.297	1193.959	-584.951	642.484	1108.314	-549.515	686.010	1145.675	-627.429	831.413	1079.203	-581.508	921.504	1074.871	-497.263	906.175	1020.889	-546.918
630	3.14500	965.186	493.263	-132.008	862.324	454.034	-140.790	557.024	574.093	-158.189	543.975	659.883	-212.784	449.604	483.234	-134.570	461.819	440.388	-199.703	849.887	465.441	-426.503	817.103	341.085	-411.788	606.068	115.770	-329.720	543.579	98.114	-274.540	728.249	40.238	-368.956	775.905	49.501	-307.504	746.328	484.085	-147.450	874.802	518.391	-103.482	768.102	558.894	-120.522	742.918	389.717	-431.895	683.920	287.115	-398.558	974.201	722.535	-123.905	1012.259	615.098	-138.331	990.913	571.460	-107.879	882.371	680.310	-72.721	923.076	572.857	-101.464	883.960	701.266	-458.641	902.669	566.386	-423.028	765.928	682.600	-471.931	792.015	550.363	-431.760	875.605	927.437	-158.543	668.328	1014.809	-193.762	825.166	960.276	-423.320	640.558	1034.247	-309.288	809.638	1490.032	-316.818	858.606	1467.821	-113.256	876.280	1422.403	-506.666	956.048	1367.227	-303.794	735.537	1285.816	-22.129	590.993	1215.288	-60.356	607.269	1254.519	20.780	721.464	1106.056	26.202	782.961	1007.331	16.784	740.971	992.630	45.026	781.388	1192.485	-583.978	652.562	1104.611	-550.015	695.273	1142.377	-627.729	842.240	1078.703	-579.061	931.056	1077.829	-493.810	918.036	1022.998	-543.220
631	3.15000	984.411	505.245	-132.076	884.059	459.158	-142.127	570.482	560.063	-157.514	550.400	644.436	-212.280	470.816	460.750	-133.814	486.316	418.850	-198.873	831.111	459.066	-425.965	796.036	336.978	-410.711	576.650	120.133	-330.336	513.667	104.430	-274.951	696.350	40.262	-368.839	744.277	49.306	-307.417	766.429	482.654	-146.213	893.331	524.323	-105.363	784.195	558.580	-121.048	723.100	387.319	-431.907	660.804	287.023	-397.929	980.718	734.847	-124.386	1024.435	629.837	-139.133	1005.393	584.141	-108.768	891.734	687.069	-73.587	938.245	582.820	-102.455	875.813	695.135	-457.957	889.090	559.775	-423.007	757.280	681.748	-471.418	777.677	548.323	-431.212	874.446	928.539	-156.369	667.595	1016.031	-194.561	826.409	959.305	-422.266	651.144	1029.620	-301.039	808.564	1491.039	-316.693	855.259	1468.877	-113.369	880.092	1423.185	-505.655	955.530	1368.416	-301.559	728.118	1290.310	-21.889	582.562	1221.901	-63.319	598.383	1261.215	18.003	708.764	1109.934	26.495	768.109	1009.865	18.723	725.178	996.213	46.101	789.296	1192.033	-582.829	662.103	1101.896	-549.902	704.149	1140.184	-627.836	852.319	1079.850	-576.598	939.769	1081.965	-489.959	929.371	1026.828	-539.320
632	3.15500	1002.369	517.761	-133.872	904.870	465.408	-144.477	584.166	545.009	-157.026	556.887	627.726	-212.125	493.694	438.242	-132.003	512.079	397.294	-197.103	811.605	453.227	-425.476	773.812	334.559	-410.151	547.199	125.285	-330.915	484.016	111.531	-275.363	664.543	40.355	-368.810	712.008	48.589	-307.777	786.052	481.829	-146.782	910.685	530.896	-107.382	799.678	558.650	-121.738	702.564	387.098	-431.436	637.207	288.991	-397.750	986.549	747.206	-125.024	1035.626	644.811	-139.904	1019.640	598.774	-109.531	900.046	695.384	-73.307	952.032	592.999	-103.129	867.551	689.138	-457.510	874.464	552.692	-423.127	748.371	681.009	-470.579	762.057	547.307	-431.030	873.624	930.090	-154.686	666.141	1016.771	-195.916	828.931	958.271	-420.574	650.974	1030.322	-303.209	807.840	1491.610	-317.647	850.275	1470.652	-112.213	883.731	1425.075	-504.324	955.144	1370.160	-299.027	720.582	1295.204	-21.906	574.869	1229.087	-65.951	589.761	1268.468	15.446	696.556	1114.846	26.804	753.840	1013.695	20.307	710.005	1001.038	46.688	796.698	1192.697	-581.645	670.945	1100.415	-549.646	712.921	1138.984	-627.548	861.523	1082.528	-574.140	948.639	1087.538	-486.583	939.558	1032.000	-535.283
633	3.16000	1019.167	530.884	-135.604	924.894	472.103	-145.623	598.302	529.207	-156.760	564.112	609.479	-212.300	517.665	415.489	-130.948	539.317	375.792	-196.346	791.236	448.874	-424.757	750.905	333.586	-410.238	518.229	130.519	-331.659	454.781	119.249	-276.145	632.820	40.474	-368.839	680.234	48.223	-307.826	805.344	480.946	-147.619	927.060	538.092	-109.625	814.257	559.310	-121.508	681.494	388.860	-430.424	612.810	292.720	-397.994	991.711	759.741	-125.227	1045.724	659.991	-140.499	1031.821	612.897	-111.262	907.874	703.300	-74.013	964.416	603.603	-104.754	858.127	682.757	-456.937	858.818	546.126	-423.395	739.518	681.111	-469.906	747.066	546.712	-429.854	873.205	932.224	-153.150	666.936	1019.072	-197.001	831.862	956.954	-419.067	651.213	1031.212	-305.332	806.993	1492.948	-317.815	845.840	1472.874	-112.007	887.085	1427.504	-502.649	954.775	1372.362	-296.357	713.092	1300.644	-22.136	567.192	1236.655	-68.666	581.021	1276.201	12.749	684.589	1120.712	26.713	740.409	1018.713	21.256	695.519	1006.797	46.863	803.453	1194.236	-580.626	679.204	1099.599	-549.546	720.811	1138.933	-627.449	870.038	1086.490	-571.545	955.836	1094.545	-483.343	949.222	1038.202	-530.719
634	3.16500	1034.773	544.528	-137.582	943.768	479.303	-146.154	613.203	512.935	-157.569	572.345	589.734	-212.793	543.036	392.940	-130.223	567.706	354.966	-195.491	770.072	446.376	-424.702	727.644	334.093	-410.749	489.928	136.092	-332.650	426.402	127.290	-277.302	601.261	40.750	-368.827	648.662	47.942	-307.907	824.198	480.121	-147.408	941.907	545.745	-111.786	828.005	558.460	-123.434	657.751	393.341	-425.527	587.540	297.560	-397.296	996.655	772.460	-124.105	1054.804	675.275	-141.191	1042.899	626.920	-112.512	915.160	711.632	-74.675	976.673	615.674	-104.090	849.219	677.135	-456.420	844.218	540.628	-424.279	730.900	681.913	-469.069	730.574	547.741	-429.013	873.387	938.110	-151.149	666.937	1020.727	-198.313	832.491	955.114	-419.871	652.675	1031.790	-306.488	806.107	1494.603	-317.777	841.117	1475.551	-111.591	889.862	1430.480	-501.047	954.456	1375.165	-293.507	705.514	1306.304	-22.982	559.433	1244.863	-71.481	572.526	1284.154	9.097	673.324	1127.482	26.337	727.252	1024.892	22.072	681.933	1013.485	46.644	809.913	1196.596	-579.814	686.716	1099.847	-549.442	728.625	1139.604	-627.069	878.174	1091.400	-568.759	962.263	1103.021	-479.805	957.954	1045.295	-526.069
635	3.17000	1049.034	558.424	-139.526	961.952	487.061	-147.618	629.068	495.748	-157.665	581.808	568.916	-213.739	569.807	371.001	-129.628	597.674	334.965	-194.153	747.665	446.525	-425.956	704.158	335.181	-411.767	462.136	142.153	-334.269	398.697	136.157	-278.746	570.134	41.057	-368.991	617.444	47.617	-307.825	842.587	478.927	-149.091	955.323	553.568	-114.194	840.696	557.581	-124.554	637.314	395.524	-425.384	563.959	302.774	-397.047	1000.747	785.127	-122.711	1063.421	690.404	-142.685	1052.905	641.152	-113.914	921.767	720.037	-75.217	987.067	626.589	-107.193	839.934	672.492	-455.453	827.677	536.273	-425.030	722.114	683.437	-468.436	715.055	549.162	-427.993	873.511	942.897	-149.694	667.167	1022.963	-199.827	834.262	954.430	-418.920	654.223	1032.516	-307.623	805.397	1496.462	-317.776	835.767	1478.581	-111.270	892.267	1433.914	-499.105	954.076	1378.342	-290.590	698.252	1312.575	-23.731	551.622	1253.451	-74.515	564.446	1292.738	6.331	662.474	1134.982	25.568	715.068	1031.846	22.203	669.163	1021.066	46.123	815.945	1199.597	-579.011	694.132	1100.576	-548.911	735.756	1140.987	-626.669	885.828	1096.984	-565.717	968.213	1111.732	-476.036	966.017	1053.131	-521.331
